<svg width="263" height="191" viewBox="0 0 263 191" fill="none" xmlns="http://www.w3.org/2000/svg">
<path d="M247.653 148.951L243.555 144.731L253.635 104.824L259.294 100.979L247.653 148.951ZM245.66 150.327H17.3402L18.8829 147.913L20.4256 145.5H48.1758H214.747H242.608L244.134 147.913L245.66 150.327ZM210.447 186.437L205.841 181.62L212.962 152.74H218.65L210.447 186.437ZM54.3961 187.901L58.0342 182.381H204.818L208.527 187.901H54.3961ZM44.2729 152.74H49.9611L57.0637 181.551L52.4756 186.437L44.2729 152.74ZM3.7057 100.979L9.32219 104.655L19.5405 144.839L15.3454 148.951L3.7057 100.979ZM37.0737 98.8716H258.058L252.94 103.698H10.0101L4.94234 98.8716H37.0737ZM12.8997 22.3115L19.5088 26.8678L36.4851 96.459H30.9485L12.8997 22.3115ZM18.854 20.5537C25.6299 20.4765 31.1416 14.9 31.1388 8.04694V3.93729L36.5416 8.98164C36.3141 18.2198 30.3199 24.7061 20.3608 25.8862L14.4465 20.4586C14.4465 20.4586 18.6596 20.5441 18.854 20.5537ZM230.341 2.43323L225.555 7.97386H37.1992L32.5822 2.43323H230.341ZM244.161 20.551C244.27 20.5441 248.475 20.4586 248.475 20.4586L242.608 25.8587C234.704 25.026 227.48 18.8208 226.496 10.9655C226.44 10.5312 226.402 9.37593 226.381 8.9334L231.78 3.87111V8.16275C231.781 14.9193 237.294 20.4779 244.161 20.551ZM231.973 96.459H226.456L243.574 27.025L250.022 22.3115L231.973 96.459ZM234.457 96.459L253.569 17.944C253.569 17.944 249.745 18.0819 246.537 18.0819C238.283 18.0819 234.272 14.1584 234.272 6.56355C234.272 4.59213 234.272 -3.05176e-05 234.272 -3.05176e-05H28.6945C28.6945 -3.05176e-05 28.6945 6.48772 28.6945 7.63609C28.6945 14.9441 23.8652 18.1053 17.5098 18.1053C14.2342 18.1053 9.35391 17.944 9.35391 17.944L28.4657 96.459H0L13.8606 152.74H41.79L50.9357 190.315H211.986L221.133 152.74H249.138L263 96.459H234.457Z" fill="#18554F"/>
<path d="M36.4848 96.4591L19.5085 26.8679L12.8994 22.3116L30.9482 96.4591H36.4848Z" fill="#D5C06D"/>
<path d="M9.32206 104.655L3.70557 100.98L15.3452 148.951L19.5403 144.839L9.32206 104.655Z" fill="#D5C06D"/>
<path d="M226.456 96.4591H231.973L250.022 22.3116L243.574 27.0251L226.456 96.4591Z" fill="#D5C06D"/>
<path d="M36.5414 8.98177L31.1386 3.9374V8.04705C31.1413 14.9002 25.6296 20.4767 18.8537 20.5539C18.6594 20.5442 14.4463 20.4588 14.4463 20.4588L20.3592 25.8864C30.3197 24.7063 36.3139 18.2199 36.5414 8.98177Z" fill="#D5C06D"/>
<path d="M226.381 8.93338C226.402 9.37592 226.44 10.5312 226.496 10.9654C227.48 18.8208 234.704 25.026 242.607 25.8586L248.475 20.4586C248.475 20.4586 244.27 20.5441 244.161 20.551C237.294 20.4779 231.781 14.9193 231.78 8.16273V3.87108L226.381 8.93338Z" fill="#D5C06D"/>
<path d="M225.556 7.974L230.341 2.43336H32.5825L37.1995 7.974H225.556Z" fill="#D5C06D"/>
<path d="M49.9593 152.74H44.2725L52.4752 186.437L57.0633 181.551L49.9593 152.74Z" fill="#D5C06D"/>
<path d="M243.555 144.731L247.653 148.951L259.294 100.98L253.635 104.825L243.555 144.731Z" fill="#D5C06D"/>
<path d="M58.0342 182.381L54.396 187.901H208.527L204.818 182.381H58.0342Z" fill="#D5C06D"/>
<path d="M205.841 181.62L210.447 186.437L218.648 152.74H212.962L205.841 181.62Z" fill="#D5C06D"/>
<path d="M4.94238 98.8716L10.0102 103.698H252.94L258.058 98.8716H4.94238Z" fill="#D5C06D"/>
<path d="M20.4256 145.5L17.3389 150.327H245.66L242.608 145.5H20.4256Z" fill="#D5C06D"/>
<path d="M90.4247 51.2627V62.5398H111.552C111.552 68.4417 103.329 75.1652 90.5474 75.1652C77.2437 75.1652 68.0814 65.8099 68.0814 54.8471C68.0814 42.9386 78.0254 33.7639 91.6626 34.1913C99.8957 34.4491 107.564 37.897 114.319 44.9652L128.659 32.3577C120.881 26.2532 113.019 22.6495 105.501 20.7608C84.6124 15.511 66.3871 23.5015 60.0358 27.8331C50.9714 34.0135 44.7539 42.7897 44.474 54.8471C44.2217 65.6582 49.3419 74.6716 57.819 80.3143C63.8959 84.3605 72.7866 86.8531 81.5588 86.82C96.3279 86.7621 107.318 80.244 110.91 71.8137L111.967 69.6149V85.6192H133.778V51.2627H90.4247Z" fill="white"/>
<path d="M160.386 85.6191L130.144 22.3875H153.801L175.222 72.5512L196.755 22.3875H219.583L189.48 85.6191H160.386Z" fill="white"/>
<path d="M37.8761 118.511L33.3005 126.655H38.2993L37.8761 118.511ZM31.9549 129.056L28.8806 134.508H25.5044L37.8926 114.228H41.7886L43.7462 134.508H38.7157L38.4137 129.056H31.9549Z" fill="white"/>
<path d="M49.1671 128.57C49.2402 127.726 49.4249 126.721 49.6869 125.585L52.4979 114.228H57.0749L54.3452 125.39C54.0957 126.395 53.9592 127.208 53.9068 127.791C53.7855 129.186 53.9868 130.224 54.5451 130.906C55.0662 131.619 55.9761 131.976 57.2431 131.976C58.6065 131.976 59.7549 131.458 60.7199 130.451C61.6849 129.445 62.4418 127.824 62.9988 125.552L65.807 114.228H69.055L66.1737 125.974C65.4665 128.893 64.263 131.133 62.5369 132.69C60.8095 134.248 58.5665 135.027 55.8396 135.027C53.405 135.027 51.6679 134.476 50.5664 133.34C49.4621 132.235 48.9837 130.646 49.1671 128.57Z" fill="white"/>
<path d="M88.1516 117.018C86.4173 116.824 84.7368 116.728 83.081 116.728H82.6923L78.3124 134.508H73.6706L78.0505 116.728H77.3681C75.7454 116.728 74.0483 116.824 72.2451 117.018L72.9455 114.228H88.852L88.1516 117.018Z" fill="white"/>
<path d="M102.762 127.337C103.483 125.779 103.921 124.125 104.07 122.404C104.233 120.556 104.074 119.031 103.556 117.895C103.039 116.759 102.179 116.208 100.913 116.208C99.6144 116.208 98.4026 116.694 97.2832 117.636C96.161 118.576 95.2387 119.842 94.5177 121.398C93.7981 122.956 93.361 124.612 93.2094 126.331C93.0481 128.179 93.2094 129.673 93.7277 130.809C94.2433 131.944 95.1022 132.528 96.3678 132.528C97.6665 132.528 98.8783 132.041 99.9991 131.101C101.121 130.159 102.042 128.893 102.762 127.337ZM88.2505 126.623C88.4559 124.286 89.1632 122.113 90.3763 120.134C91.5868 118.154 93.1859 116.598 95.1367 115.429C97.0874 114.293 99.2146 113.71 101.52 113.71C103.987 113.71 105.908 114.391 107.313 115.786C108.715 117.181 109.277 119.29 109.03 122.113C108.826 124.449 108.119 126.59 106.907 128.57C105.696 130.549 104.128 132.139 102.177 133.273C100.227 134.442 98.0635 135.027 95.7598 135.027C93.2921 135.027 91.3758 134.313 89.9724 132.918C88.569 131.523 88.0037 129.445 88.2505 126.623Z" fill="white"/>
<path d="M110.987 131.619L113.089 129.478C113.886 130.387 114.67 131.068 115.504 131.554C116.305 132.041 117.225 132.302 118.231 132.302C119.01 132.302 119.646 132.074 120.141 131.619C120.634 131.165 120.911 130.581 120.975 129.868C121.028 129.251 120.915 128.699 120.627 128.277C120.307 127.856 119.767 127.337 118.98 126.688L116.741 124.838C115.923 124.157 115.31 123.379 114.899 122.502C114.49 121.625 114.31 120.717 114.393 119.777C114.56 117.862 115.339 116.37 116.7 115.299C118.059 114.228 119.792 113.71 121.966 113.71C123.233 113.71 124.414 113.937 125.578 114.358C126.739 114.812 127.722 115.462 128.527 116.272L126.75 118.415C126.059 117.765 125.326 117.246 124.482 116.857C123.638 116.5 122.874 116.304 122.129 116.304C121.317 116.304 120.684 116.5 120.193 116.922C119.669 117.344 119.396 117.862 119.338 118.511C119.291 119.063 119.378 119.549 119.63 120.003C119.883 120.458 120.324 120.978 120.991 121.529L123.467 123.638C124.285 124.319 124.901 125.065 125.32 125.844C125.739 126.623 125.887 127.531 125.793 128.603C125.685 129.835 125.297 130.938 124.66 131.911C124.021 132.885 123.113 133.63 121.993 134.183C120.841 134.735 119.484 135.027 117.958 135.027C116.432 135.027 115.095 134.735 113.913 134.15C112.732 133.567 111.765 132.723 110.987 131.619Z" fill="white"/>
<path d="M137.091 122.989H137.481C138.876 122.989 140.862 122.956 143.466 122.859L142.768 125.65C140.146 125.552 138.169 125.52 136.904 125.52H136.482L134.88 131.945H137.022C138.289 131.945 139.33 131.912 140.176 131.879C140.991 131.847 141.974 131.749 143.055 131.619L142.349 134.508H129.689L134.677 114.228H147.142L146.444 117.018C144.704 116.857 142.767 116.759 140.591 116.759H138.643L137.091 122.989Z" fill="white"/>
<path d="M158.996 123.735C159.786 123.248 160.424 122.632 160.916 121.822C161.375 121.042 161.643 120.199 161.726 119.257C161.81 118.284 161.493 117.385 160.838 116.954C160.177 116.518 159.319 116.496 158.118 116.496C157.728 116.496 157.201 116.496 156.749 116.496L154.764 124.449C155.088 124.449 155.818 124.449 156.24 124.449C157.28 124.449 158.207 124.222 158.996 123.735ZM159.232 126.557C159.232 126.557 162.243 132.503 163.624 134.508H158.56L155.664 126.818C155.046 126.818 154.815 126.815 154.216 126.815L152.325 134.508H147.682L152.8 114.174C154.143 114.174 157.47 114.228 158.282 114.228C162.364 114.228 163.602 114.628 164.899 115.614C165.85 116.336 166.625 117.811 166.5 119.26C166.361 120.85 165.885 122.232 164.657 123.56C163.588 124.712 161.69 125.869 159.232 126.557Z" fill="white"/>
<path d="M176.623 134.508H172.657C171.985 128.083 171.114 121.335 170.081 114.228H175.047C175.796 119.777 176.343 124.643 176.69 128.829L183.779 114.228H188.064L176.623 134.508Z" fill="white"/>
<path d="M197.514 114.228L192.526 134.508H187.948L192.937 114.228H197.514Z" fill="white"/>
<path d="M199.774 126.947C199.999 124.384 200.753 122.08 202.064 120.069C203.343 118.056 204.973 116.5 206.955 115.364C208.933 114.261 211.027 113.71 213.202 113.71C215.636 113.71 217.466 114.326 218.688 115.558L216.771 117.83C216.263 117.31 215.746 116.922 215.152 116.661C214.555 116.435 213.819 116.304 212.974 116.304C211.644 116.304 210.371 116.759 209.188 117.668C207.972 118.576 206.988 119.81 206.234 121.366C205.447 122.956 204.973 124.676 204.804 126.59C204.649 128.375 204.884 129.77 205.476 130.777C206.07 131.782 207.097 132.302 208.59 132.302C209.272 132.302 209.963 132.172 210.698 131.944C211.4 131.717 212.082 131.327 212.714 130.809L213.73 132.918C212.791 133.63 211.739 134.15 210.637 134.507C209.501 134.864 208.35 135.027 207.181 135.027C204.552 135.027 202.636 134.313 201.368 132.853C200.096 131.425 199.556 129.445 199.774 126.947Z" fill="white"/>
<path d="M225.956 122.989H226.345C227.74 122.989 229.724 122.956 232.33 122.859L231.632 125.65C229.01 125.552 227.033 125.52 225.768 125.52H225.346L223.744 131.945H225.886C227.153 131.945 228.195 131.912 229.04 131.879C229.855 131.847 230.838 131.749 231.919 131.619L231.213 134.508H218.553L223.542 114.228H236.008L235.308 117.018C233.568 116.857 231.631 116.759 229.455 116.759H227.507L225.956 122.989Z" fill="white"/>
<path d="M77.9359 170.742L74.7582 166.228L73.4705 167.581V170.742H70.9932V160.477H73.4705V164.892L77.7401 160.477H80.6407L76.5517 164.615L80.9495 170.742H77.9359Z" fill="white"/>
<path d="M88.132 166.668H90.8534L89.5175 163.165H89.4528L88.132 166.668ZM91.5717 168.543H87.4151L86.5839 170.742H84.0913L88.1803 160.477H90.9513L95.0417 170.742H92.4182L91.5717 168.543Z" fill="white"/>
<path d="M101.538 164.925H103.982C105.27 164.925 105.905 164.534 105.905 163.704C105.905 162.888 105.301 162.465 103.998 162.465H101.538V164.925ZM105.791 170.742C105.578 170.433 105.432 169.7 105.351 168.754C105.27 167.467 104.748 166.815 103.721 166.815H101.538V170.742H99.1099V160.477H104.406C107.012 160.477 108.333 161.633 108.333 163.508C108.333 164.844 107.078 165.837 105.595 165.919C106.672 166.13 107.453 166.978 107.664 168.184C107.974 169.731 108.235 170.254 108.66 170.627V170.742H105.791Z" fill="white"/>
<path d="M115.484 160.477V168.558H121.35V170.742H113.007V160.477H115.484Z" fill="white"/>
<path d="M126.51 167.255C127.31 168.363 128.58 168.933 129.933 168.933C131.122 168.933 131.938 168.558 131.938 167.858C131.938 167.239 131.432 167.059 130.715 166.913L128.369 166.44C126.706 166.098 125.501 165.284 125.501 163.54C125.501 161.585 127.162 160.281 129.673 160.281C131.644 160.281 133.11 161.047 134.138 162.204L132.491 163.769C131.905 162.888 131.057 162.285 129.673 162.285C128.711 162.285 127.962 162.677 127.962 163.328C127.962 163.898 128.402 164.111 129.053 164.224L131.286 164.697C133.403 165.121 134.446 166.049 134.446 167.728C134.446 169.781 132.458 170.938 129.933 170.938C127.766 170.938 126.087 170.237 124.979 169.031L126.51 167.255Z" fill="white"/>
<path d="M138.923 170.742V160.477H141.399V164.388H146.419V160.477H148.896V170.742H146.419V166.538H141.399V170.742H138.923Z" fill="white"/>
<path d="M156.99 166.668H159.712L158.374 163.165H158.31L156.99 166.668ZM160.428 168.543H156.273L155.442 170.742H152.949L157.038 160.477H159.809L163.9 170.742H161.276L160.428 168.543Z" fill="white"/>
<path d="M173.117 170.742L170.38 162.839H170.314V170.742H167.968V160.477H171.846L173.85 166.62H173.9L175.855 160.477H179.766V170.742H177.224V162.839H177.158L174.438 170.742H173.117Z" fill="white"/>
<path d="M191.917 166.897V160.477H194.197V170.742H191.95L187.029 163.671V170.742H184.747V160.477H187.533L191.917 166.897Z" fill="white"/>
</svg>
